HIERARCHY
ROOT Hips
{
	OFFSET 0.000000 0.000000 0.000000
	CHANNELS 6 Xposition Yposition Zposition Xrotation Yrotation Zrotation
	JOINT LeftUpLeg_virtual
	{
		OFFSET 0.000000 0.000000 0.000000
		CHANNELS 3 Xrotation Yrotation Zrotation
		JOINT LeftUpLeg
		{
			OFFSET 10.205400 -3.823500 0.155100
			CHANNELS 3 Xrotation Yrotation Zrotation
			JOINT LeftLeg
			{
				OFFSET 0.708757 -12.982077 0.567790
				CHANNELS 3 Xrotation Yrotation Zrotation
				JOINT LeftFoot
				{
					OFFSET -0.708756 -10.717838 -2.184338
					CHANNELS 3 Xrotation Yrotation Zrotation
					JOINT LeftToeBase
					{
						OFFSET 0.108149 -7.191104 7.560241
						CHANNELS 3 Xrotation Yrotation Zrotation
						JOINT LeftToe_End
						{
							OFFSET 0.070230 0.081724 4.490308
							CHANNELS 3 Xrotation Yrotation Zrotation
							End Site
							{
								OFFSET 0 0 0
							}
						}
					}
				}
			}
		}
	}
	JOINT RightUpLeg_virtual
	{
		OFFSET 0.000000 0.000000 0.000000
		CHANNELS 3 Xrotation Yrotation Zrotation
		JOINT RightUpLeg
		{
			OFFSET -10.205400 -3.823500 0.005500
			CHANNELS 3 Xrotation Yrotation Zrotation
			JOINT RightLeg
			{
				OFFSET -0.708756 -12.982134 0.610632
				CHANNELS 3 Xrotation Yrotation Zrotation
				JOINT RightFoot
				{
					OFFSET 0.708754 -10.717769 -1.945823
					CHANNELS 3 Xrotation Yrotation Zrotation
					JOINT RightToeBase
					{
						OFFSET -0.108140 -7.191069 7.372968
						CHANNELS 3 Xrotation Yrotation Zrotation
						JOINT RightToe_End
						{
							OFFSET -0.070227 0.081735 4.479403
							CHANNELS 3 Xrotation Yrotation Zrotation
							End Site
							{
								OFFSET 0 0 0
							}
						}
					}
				}
			}
		}
	}
	JOINT Spine_virtual
	{
		OFFSET 0.000000 0.000000 0.000000
		CHANNELS 3 Xrotation Yrotation Zrotation
		JOINT Spine
		{
			OFFSET 0.000000 6.876099 0.125700
			CHANNELS 3 Xrotation Yrotation Zrotation
			JOINT Spine1
			{
				OFFSET 0.000000 5.730043 0.104720
				CHANNELS 3 Xrotation Yrotation Zrotation
				JOINT Spine1_split
				{
					OFFSET 0.000000 5.730043 0.104720
					CHANNELS 3 Xrotation Yrotation Zrotation
					JOINT Spine2
					{
						OFFSET 0.000000 5.730043 0.104720
						CHANNELS 3 Xrotation Yrotation Zrotation
						JOINT Neck_virtual
						{
							OFFSET 0.000000 0.000000 0.000000
							CHANNELS 3 Xrotation Yrotation Zrotation
							JOINT Neck
							{
								OFFSET 0.000000 10.314075 0.188496
								CHANNELS 3 Xrotation Yrotation Zrotation
								JOINT Head
								{
									OFFSET 0.000000 7.643700 -2.377400
									CHANNELS 3 Xrotation Yrotation Zrotation
									JOINT HeadTop_End
									{
										OFFSET 0.000000 43.788605 -13.619600
										CHANNELS 3 Xrotation Yrotation Zrotation
										End Site
										{
											OFFSET 0 0 0
										}
									}
								}
							}
						}
						JOINT LeftShoulder_virtual
						{
							OFFSET 0.000000 0.000000 0.000000
							CHANNELS 3 Xrotation Yrotation Zrotation
							JOINT LeftShoulder
							{
								OFFSET 2.196100 4.412489 0.087492
								CHANNELS 3 Xrotation Yrotation Zrotation
								JOINT LeftShoulder_split
								{
									OFFSET 2.196100 4.412489 0.087492
									CHANNELS 3 Xrotation Yrotation Zrotation
									JOINT LeftArm
									{
										OFFSET 8.771219 -2.981674 -0.026999
										CHANNELS 3 Xrotation Yrotation Zrotation
										JOINT LeftForeArm
										{
											OFFSET 8.512804 0.000000 -0.000000
											CHANNELS 3 Xrotation Yrotation Zrotation
											JOINT LeftHand
											{
												OFFSET 18.484802 0.000000 -0.000000
												CHANNELS 3 Xrotation Yrotation Zrotation
												End Site
												{
													OFFSET 0 0 0
												}
											}
										}
									}
								}
							}
						}
						JOINT RightShoulder_virtual
						{
							OFFSET 0.000000 0.000000 0.000000
							CHANNELS 3 Xrotation Yrotation Zrotation
							JOINT RightShoulder
							{
								OFFSET -2.196100 4.412496 0.070690
								CHANNELS 3 Xrotation Yrotation Zrotation
								JOINT RightShoulder_split
								{
									OFFSET -2.196100 4.412496 0.070690
									CHANNELS 3 Xrotation Yrotation Zrotation
									JOINT RightArm
									{
										OFFSET -8.771282 -2.981682 -0.094208
										CHANNELS 3 Xrotation Yrotation Zrotation
										JOINT RightForeArm
										{
											OFFSET -8.494598 0.000000 0.000000
											CHANNELS 3 Xrotation Yrotation Zrotation
											JOINT RightHand
											{
												OFFSET -18.483803 0.000000 0.000001
												CHANNELS 3 Xrotation Yrotation Zrotation
												End Site
												{
													OFFSET 0 0 0
												}
											}
										}
									}
								}
							}
						}
					}
				}
			}
		}
	}
}
MOTION
Frames: 10
Frame Time: 0.03333333
-2.251498 26.360910 -3.552742 0.000000 0.000000 0.000000 2.561922 1.825163 6.868027 -60.085591 10.947822 33.247780 58.458503 -27.677702 4.434200 0.050523 -1.488918 -25.235218 -0.638560 -4.343914 2.860858 0.000000 0.000000 0.000000 0.878366 4.238130 6.920375 -25.748761 -2.401421 -36.080010 58.854422 19.558178 -5.610792 -42.409823 -14.522736 39.778533 10.880225 2.311192 -12.196478 0.000000 0.000000 0.000000 0.818355 8.597186 7.758045 2.737305 2.775367 -2.714711 10.602965 4.812045 -4.253339 0.222478 -1.971442 0.438105 0.000000 0.000000 0.000000 8.720515 6.363565 -2.520608 -28.896915 27.522701 27.294295 -0.265783 22.934631 0.211498 0.000000 0.000000 0.000000 4.649618 3.395922 -3.126737 -1.422467 -10.434030 10.476107 -2.702556 -2.784046 1.079313 0.600224 36.610442 -61.623865 -51.345261 -67.552436 -45.235889 0.000000 0.000000 0.000000 4.118839 2.449195 -1.924728 1.976839 3.841490 -5.152837 -14.480969 5.133367 -4.793651 -7.265131 -19.016823 51.940006 -17.548916 46.916716 21.070326 0.000000 0.000000 0.000000 
-2.351277 26.448294 -3.612305 0.000000 0.000000 0.000000 2.311596 1.831000 6.835002 -59.981362 10.874785 33.243606 57.521531 -27.550239 3.995199 0.739639 -1.128043 -24.626063 0.526882 -4.324744 2.528063 0.000000 0.000000 0.000000 0.642846 4.059596 6.908621 -25.262056 -2.577918 -35.840772 57.850493 19.249288 -5.293349 -42.496566 -14.497553 39.158820 11.033028 2.357117 -12.278087 0.000000 0.000000 0.000000 0.246993 8.410304 7.752280 2.639740 2.742892 -2.795923 10.600743 4.658988 -4.327843 0.153909 -1.910242 0.337755 0.000000 0.000000 0.000000 8.664260 6.275767 -2.500688 -28.894282 27.521643 27.382047 -0.605034 23.754848 -0.204935 0.000000 0.000000 0.000000 4.530822 3.256266 -3.132233 -1.274068 -10.602780 10.649973 -2.778894 -1.964653 0.545120 0.163761 36.586417 -61.672305 -54.073006 -68.252988 -48.136537 0.000000 0.000000 0.000000 4.139474 2.347512 -1.821381 1.849156 3.404799 -5.524364 -14.430421 4.635897 -4.632440 -6.173268 -19.593699 52.427446 -18.273381 47.999714 21.748209 0.000000 0.000000 0.000000 
-2.440524 26.626799 -3.686192 0.000000 0.000000 0.000000 2.019339 0.732299 6.825169 -59.582991 11.352583 33.395981 56.082192 -27.098869 3.496160 1.157204 -0.338088 -23.877783 1.441468 -4.328922 1.874918 0.000000 0.000000 0.000000 0.113789 2.329228 6.991292 -25.125577 -2.510999 -35.190712 56.845745 18.922448 -4.929371 -41.763642 -13.970994 38.310258 10.339947 2.356073 -12.051164 0.000000 0.000000 0.000000 -0.473191 7.444342 7.707154 2.794830 2.743462 -2.928020 10.592047 4.430287 -4.440954 0.092707 -1.823157 0.232761 0.000000 0.000000 0.000000 8.603053 6.109019 -2.498752 -29.016891 27.530712 27.863378 -1.466420 25.816247 -0.324674 0.000000 0.000000 0.000000 4.452716 3.102476 -3.132600 -1.057064 -10.874850 10.963572 -2.524186 -0.940142 -0.299015 -0.542987 37.104750 -61.238390 -58.747809 -68.718205 -53.133237 0.000000 0.000000 0.000000 4.161112 2.195400 -1.792743 1.678477 2.763572 -6.408717 -14.841569 5.432220 -3.374030 -4.283684 -21.165320 53.551193 -19.311243 50.632746 22.493934 0.000000 0.000000 0.000000 
-2.561520 26.851995 -3.710608 0.000000 0.000000 0.000000 1.705580 -1.774769 6.774897 -59.108573 12.150835 33.767461 54.837253 -26.492453 3.198194 1.528995 0.726145 -23.276989 1.773540 -4.336961 1.191649 0.000000 0.000000 0.000000 -0.394604 -0.333907 7.073287 -25.219782 -1.942441 -34.060152 55.973745 18.609501 -4.565747 -40.439156 -13.085968 37.160232 9.128710 2.287944 -11.465836 0.000000 0.000000 0.000000 -1.183644 5.486010 7.534659 3.229325 2.738499 -3.061372 10.614417 4.129252 -4.537236 0.089999 -1.785998 0.211195 0.000000 0.000000 0.000000 8.558976 5.867787 -2.503448 -29.278490 27.581890 28.586017 -2.875570 28.953630 0.022284 0.000000 0.000000 0.000000 4.424166 2.944324 -3.131452 -0.787778 -11.206556 11.323851 -2.079074 0.333321 -1.395182 -1.624451 37.978010 -60.197462 -64.229234 -68.842945 -58.997678 0.000000 0.000000 0.000000 4.172835 2.001825 -1.841153 1.460396 2.178036 -7.565028 -15.577278 6.930642 -1.680416 -2.183353 -23.319079 54.886116 -20.353120 53.761956 23.045193 0.000000 0.000000 0.000000 
-2.734901 27.043499 -3.667080 0.000000 0.000000 0.000000 1.423561 -5.517778 6.719944 -58.624921 13.122897 34.306500 54.296391 -25.808355 3.439857 1.859604 2.107926 -22.735301 2.018193 -4.309941 0.603821 0.000000 0.000000 0.000000 -0.584832 -3.617030 7.042326 -25.640416 -0.647273 -32.498057 55.337960 18.243572 -4.250460 -38.855471 -11.976845 35.541750 8.378239 2.110882 -10.590613 0.000000 0.000000 0.000000 -1.778642 2.702236 7.183894 3.884320 2.688956 -3.133089 10.654242 3.766871 -4.596312 0.098910 -1.792806 0.232109 0.000000 0.000000 0.000000 8.538349 5.568883 -2.514097 -29.618907 27.735619 29.217442 -4.837908 32.870483 0.987858 0.000000 0.000000 0.000000 4.455774 2.747427 -3.121780 -0.508294 -11.568954 11.569837 -1.377745 1.975421 -2.468776 -2.956933 38.912141 -58.560225 -69.360093 -68.785387 -64.528841 0.000000 0.000000 0.000000 4.152863 1.783169 -1.937440 1.208462 1.875121 -8.702099 -16.252707 7.779583 -0.368480 -0.727776 -25.474403 55.641286 -21.043809 56.399071 23.114917 0.000000 0.000000 0.000000 
-2.929867 27.182381 -3.545551 0.000000 0.000000 0.000000 1.195514 -10.228524 6.679781 -57.858833 14.276957 34.793472 54.306100 -24.930978 4.206587 1.725164 4.071906 -21.911539 2.910834 -4.227903 0.069195 0.000000 0.000000 0.000000 -0.476489 -7.427456 6.934843 -26.543836 1.345481 -30.711853 55.021668 17.828515 -4.008926 -37.020568 -10.760635 33.651539 8.528788 1.896547 -9.657007 0.000000 0.000000 0.000000 -2.190716 -0.833854 6.728968 4.668698 2.531039 -3.095654 10.652071 3.371896 -4.637472 0.110123 -1.808553 0.296186 0.000000 0.000000 0.000000 8.498530 5.217168 -2.540750 -30.011844 28.056850 29.506950 -7.334466 37.134523 2.738128 0.000000 0.000000 0.000000 4.470533 2.500420 -3.148261 -0.233830 -11.936898 11.578876 -0.712297 3.411126 -3.319876 -4.082024 39.561921 -56.573600 -73.583738 -68.799266 -69.121972 0.000000 0.000000 0.000000 4.053966 1.524292 -2.081115 1.006059 2.060566 -9.581801 -16.528184 7.884977 0.506797 -0.614442 -27.388283 55.209942 -21.146081 57.912327 22.585308 0.000000 0.000000 0.000000 
-3.136076 27.299471 -3.379143 0.000000 0.000000 0.000000 1.220362 -15.633048 6.762188 -56.655364 15.626797 35.165687 54.188050 -24.031583 5.352538 0.973008 6.579982 -21.220706 4.532387 -4.109154 -0.210128 0.000000 0.000000 0.000000 -0.099525 -11.612131 6.877914 -28.107116 3.724071 -28.909892 54.936134 17.492010 -3.901899 -34.739411 -9.451021 32.233951 9.086969 1.758626 -9.071219 0.000000 0.000000 0.000000 -2.252899 -4.997823 6.298283 5.478793 2.260034 -2.926784 10.527896 2.952446 -4.713726 0.182416 -1.759522 0.333920 0.000000 0.000000 0.000000 8.351163 4.806913 -2.626507 -30.283515 28.557079 29.254885 -10.315259 41.546917 5.335104 0.000000 0.000000 0.000000 4.413117 2.172556 -3.254299 0.008437 -12.208556 11.335080 -0.633943 4.127001 -3.816526 -4.524396 39.858884 -54.703265 -76.225369 -68.990457 -72.026421 0.000000 0.000000 0.000000 3.815977 1.214765 -2.261342 0.916476 2.648164 -10.123159 -16.105538 7.843092 1.016733 -1.947399 -28.852795 53.320524 -20.688240 58.155284 21.600130 0.000000 0.000000 0.000000 
-3.303688 27.424833 -3.198967 0.000000 0.000000 0.000000 1.549164 -21.092913 7.136269 -54.984099 17.081564 35.319151 53.230635 -23.323016 6.489031 -0.198903 9.305890 -20.956079 6.792668 -3.990342 -0.277668 0.000000 0.000000 0.000000 0.622841 -16.476038 7.101766 -30.372263 6.048273 -27.164765 54.960852 17.279974 -4.000780 -31.951741 -8.027352 31.725351 9.747419 1.789651 -9.196862 0.000000 0.000000 0.000000 -2.016826 -9.483049 6.100102 6.232186 1.851886 -2.739381 10.160318 2.511147 -4.906601 0.258999 -1.726047 0.321792 0.000000 0.000000 0.000000 8.013607 4.317038 -2.817244 -30.261822 29.234600 28.436851 -13.570380 45.866862 8.778163 0.000000 0.000000 0.000000 4.205594 1.748113 -3.492261 0.174770 -12.258111 11.017593 -1.024241 4.540493 -3.238425 -4.098688 39.968433 -53.414791 -77.179171 -69.342007 -73.102934 0.000000 0.000000 0.000000 3.383319 0.820938 -2.501053 0.987627 3.434613 -10.383152 -15.394753 7.604757 1.065548 -4.461524 -29.943795 50.139705 -19.972035 57.383602 20.611301 0.000000 0.000000 0.000000 
-3.419509 27.590775 -3.070620 0.000000 0.000000 0.000000 2.336047 -26.272049 7.898996 -53.142577 18.446729 35.532382 51.194522 -23.100521 7.173633 -0.812331 11.695698 -21.555729 9.078743 -3.910923 -0.071270 0.000000 0.000000 0.000000 1.609523 -21.862266 7.785716 -33.101067 7.923472 -25.548440 54.758248 17.074459 -4.225341 -28.924403 -6.518031 31.951082 10.620969 2.004470 -10.175837 0.000000 0.000000 0.000000 -1.450154 -14.040111 6.287705 6.843441 1.288150 -2.668298 9.473226 2.050936 -5.242786 0.356242 -1.704365 0.360349 0.000000 0.000000 0.000000 7.482551 3.730702 -3.163675 -29.900806 30.071499 27.341761 -17.226760 49.985189 13.147050 0.000000 0.000000 0.000000 3.773075 1.227495 -3.899195 0.305068 -11.952694 11.010587 -1.565535 4.707449 -2.056409 -3.352900 40.098620 -52.578707 -75.846218 -69.513267 -71.704473 0.000000 0.000000 0.000000 2.696694 0.295782 -2.862277 1.215905 4.130022 -10.406948 -15.505086 7.230127 1.130336 -7.665175 -31.013833 46.026483 -19.589370 56.234559 20.280490 0.000000 0.000000 0.000000 
-3.461756 27.794950 -3.044918 0.000000 0.000000 0.000000 3.684485 -30.928360 9.158992 -51.600853 19.446232 36.085658 48.524089 -23.426558 7.245885 -0.054931 13.340859 -23.100798 10.611285 -3.917499 0.486976 0.000000 0.000000 0.000000 2.889937 -27.292562 8.954737 -36.018948 9.365988 -24.098576 54.071145 16.766289 -4.576078 -26.134204 -4.974187 32.563791 11.733621 2.339315 -11.975615 0.000000 0.000000 0.000000 -0.387474 -18.291721 6.922062 7.223191 0.625545 -2.790739 8.535666 1.532407 -5.720029 0.359245 -1.714235 0.389349 0.000000 0.000000 0.000000 6.829522 3.033778 -3.679502 -29.186085 31.027490 26.325086 -21.730575 54.139170 18.649637 0.000000 0.000000 0.000000 3.138123 0.611121 -4.431837 0.457397 -11.270899 11.646312 -1.819514 4.764014 -0.826728 -2.930250 40.326878 -51.774169 -72.626590 -69.246486 -68.341889 0.000000 0.000000 0.000000 1.779042 -0.382178 -3.388235 1.531048 4.437868 -10.333204 -15.742056 7.055683 1.308386 -11.326109 -32.267091 40.948446 -20.163130 55.881681 21.272575 0.000000 0.000000 0.000000 
